<svg xmlns="http://www.w3.org/2000/svg" xmlns:xlink="http://www.w3.org/1999/xlink" width="200" zoomAndPan="magnify" viewBox="0 0 150 149.999998" height="200" preserveAspectRatio="xMidYMid meet" version="1.0"><defs><clipPath id="c5be9ba18c"><path d="M 0 0 L 149.894531 0 L 149.894531 150 L 0 150 Z M 0 0 " clip-rule="nonzero"/></clipPath></defs><g clip-path="url(#c5be9ba18c)"><path fill="#312a5c" d="M 74.480469 46.476562 C 90.074219 46.183594 102.9375 58.59375 103.230469 74.1875 C 103.230469 74.46875 103.230469 74.734375 103.230469 75.011719 C 103.40625 90.605469 90.914062 103.390625 75.320312 103.5625 C 59.726562 103.738281 46.941406 91.246094 46.769531 75.652344 C 46.769531 75.4375 46.769531 75.226562 46.769531 75.011719 C 46.59375 59.5 58.964844 46.753906 74.480469 46.476562 Z M 77.503906 0.0664062 C 73.296875 -0.078125 69.074219 0.132812 64.90625 0.691406 C 63.425781 0.890625 62.214844 1.929688 61.777344 3.34375 L 57.621094 16.871094 C 57.261719 18.015625 56.382812 18.9375 55.25 19.335938 C 53.292969 20.042969 51.375 20.828125 49.5 21.71875 C 48.40625 22.253906 47.128906 22.226562 46.0625 21.652344 L 33.570312 15.019531 C 32.253906 14.328125 30.65625 14.460938 29.484375 15.367188 C 24.128906 19.429688 19.363281 24.210938 15.289062 29.550781 C 14.382812 30.734375 14.25 32.320312 14.941406 33.636719 L 21.585938 46.140625 C 22.160156 47.195312 22.210938 48.472656 21.71875 49.566406 C 20.8125 51.441406 20.015625 53.359375 19.324219 55.316406 C 18.921875 56.464844 18.003906 57.34375 16.84375 57.6875 L 3.328125 61.855469 C 1.90625 62.28125 0.867188 63.507812 0.679688 64.972656 C -0.226562 71.644531 -0.226562 78.382812 0.679688 85.054688 C 0.867188 86.519531 1.90625 87.742188 3.328125 88.171875 L 16.84375 92.339844 C 18.003906 92.683594 18.921875 93.5625 19.324219 94.707031 C 20.015625 96.667969 20.8125 98.582031 21.71875 100.460938 C 22.210938 101.554688 22.160156 102.832031 21.585938 103.882812 L 14.941406 116.386719 C 14.25 117.695312 14.382812 119.292969 15.289062 120.476562 C 19.363281 125.816406 24.128906 130.585938 29.484375 134.660156 C 30.65625 135.566406 32.253906 135.683594 33.570312 135.003906 L 46.0625 128.375 C 47.128906 127.800781 48.40625 127.773438 49.5 128.292969 C 51.375 129.1875 53.292969 129.984375 55.25 130.675781 C 56.382812 131.078125 57.261719 131.996094 57.621094 133.140625 L 61.777344 146.671875 C 62.214844 148.09375 63.425781 149.132812 64.90625 149.320312 C 71.5625 150.226562 78.316406 150.226562 84.972656 149.320312 C 86.4375 149.132812 87.664062 148.09375 88.105469 146.671875 L 92.257812 133.140625 C 92.617188 131.996094 93.496094 131.078125 94.628906 130.675781 C 96.585938 129.984375 98.515625 129.1875 100.382812 128.292969 C 101.472656 127.773438 102.738281 127.800781 103.804688 128.375 L 116.308594 135.003906 C 117.625 135.683594 119.226562 135.566406 120.398438 134.660156 C 125.75 130.585938 130.515625 125.816406 134.59375 120.476562 C 135.496094 119.292969 135.632812 117.695312 134.9375 116.386719 L 128.308594 103.882812 C 127.722656 102.832031 127.679688 101.554688 128.171875 100.460938 C 129.066406 98.582031 129.863281 96.667969 130.558594 94.707031 C 130.957031 93.5625 131.875 92.683594 133.035156 92.339844 L 146.5625 88.171875 C 147.976562 87.730469 149.015625 86.519531 149.214844 85.054688 C 150.105469 78.382812 150.105469 71.644531 149.214844 64.972656 C 149.015625 63.507812 147.976562 62.28125 146.5625 61.855469 L 133.035156 57.6875 C 131.875 57.34375 130.957031 56.464844 130.558594 55.316406 C 129.863281 53.359375 129.066406 51.441406 128.171875 49.566406 C 127.679688 48.472656 127.722656 47.195312 128.308594 46.140625 L 134.9375 33.636719 C 135.632812 32.320312 135.496094 30.734375 134.59375 29.550781 C 130.515625 24.210938 125.75 19.429688 120.398438 15.367188 C 119.226562 14.460938 117.625 14.328125 116.308594 15.019531 L 103.804688 21.652344 C 102.738281 22.226562 101.472656 22.253906 100.382812 21.734375 C 98.515625 20.839844 96.585938 20.042969 94.628906 19.347656 C 93.496094 18.949219 92.617188 18.03125 92.257812 16.871094 L 88.105469 3.355469 C 87.664062 1.929688 86.4375 0.890625 84.972656 0.691406 C 82.496094 0.359375 80.007812 0.148438 77.503906 0.0664062 " fill-opacity="1" fill-rule="nonzero"/></g></svg>