<svg xmlns="http://www.w3.org/2000/svg" xmlns:xlink="http://www.w3.org/1999/xlink" width="200" zoomAndPan="magnify" viewBox="0 0 150 149.999998" height="200" preserveAspectRatio="xMidYMid meet" version="1.0"><defs><clipPath id="37fcb88371"><path d="M 72 82 L 148.824219 82 L 148.824219 146.933594 L 72 146.933594 Z M 72 82 " clip-rule="nonzero"/></clipPath><clipPath id="95b8d368ea"><path d="M 1.074219 77 L 66 77 L 66 146.933594 L 1.074219 146.933594 Z M 1.074219 77 " clip-rule="nonzero"/></clipPath></defs><g clip-path="url(#37fcb88371)"><path fill="#312a5c" d="M 148.039062 93.660156 L 138.003906 82.511719 L 126.882812 92.570312 C 125.621094 93.699219 125.515625 95.632812 126.660156 96.894531 C 127.785156 98.15625 129.714844 98.25 130.972656 97.121094 L 134.566406 93.871094 C 130.476562 122.296875 104.554688 142.671875 75.828125 139.621094 C 74.152344 139.4375 72.640625 140.660156 72.472656 142.34375 C 72.289062 144.027344 73.507812 145.539062 75.1875 145.710938 C 77.324219 145.945312 79.449219 146.050781 81.550781 146.050781 C 110.984375 146.050781 136.457031 124.226562 140.640625 94.59375 L 143.488281 97.761719 C 144.105469 98.433594 144.929688 98.777344 145.769531 98.777344 C 146.492188 98.777344 147.226562 98.511719 147.816406 97.988281 C 149.074219 96.855469 149.167969 94.910156 148.039062 93.660156 " fill-opacity="1" fill-rule="nonzero"/></g><path fill="#312a5c" d="M 78.769531 75.507812 L 78.769531 78.570312 L 143.015625 78.570312 L 143.015625 75.507812 C 143.015625 60.636719 132.902344 48.09375 119.207031 44.414062 C 125.332031 41.339844 129.558594 34.988281 129.558594 27.679688 C 129.558594 17.371094 121.175781 8.984375 110.890625 8.984375 C 100.609375 8.984375 92.238281 17.371094 92.238281 27.679688 C 92.238281 34.988281 96.449219 41.339844 102.5625 44.414062 C 88.882812 48.09375 78.769531 60.636719 78.769531 75.507812 " fill-opacity="1" fill-rule="nonzero"/><path fill="#312a5c" d="M 85.222656 16.203125 L 75.4375 4.828125 C 74.335938 3.554688 72.394531 3.410156 71.121094 4.515625 C 69.835938 5.617188 69.691406 7.550781 70.804688 8.839844 L 73.429688 11.890625 C 41.160156 9.496094 12.660156 33.488281 9.574219 65.921875 C 9.417969 67.605469 10.652344 69.105469 12.34375 69.261719 C 12.433594 69.273438 12.527344 69.273438 12.632812 69.273438 C 14.191406 69.273438 15.519531 68.089844 15.675781 66.5 C 18.457031 37.144531 44.441406 15.492188 73.703125 18.070312 L 69.886719 21.367188 C 68.601562 22.472656 68.472656 24.417969 69.574219 25.695312 C 70.175781 26.390625 71.027344 26.757812 71.882812 26.757812 C 72.589844 26.757812 73.3125 26.507812 73.886719 26.007812 L 85.222656 16.203125 " fill-opacity="1" fill-rule="nonzero"/><g clip-path="url(#95b8d368ea)"><path fill="#312a5c" d="M 41.515625 112.777344 C 47.640625 109.699219 51.851562 103.363281 51.851562 96.042969 C 51.851562 85.734375 43.484375 77.347656 33.199219 77.347656 C 22.902344 77.347656 14.535156 85.734375 14.535156 96.042969 C 14.535156 103.363281 18.746094 109.699219 24.871094 112.777344 C 11.175781 116.457031 1.074219 129 1.074219 143.867188 L 1.074219 146.933594 L 65.308594 146.933594 L 65.308594 143.867188 C 65.308594 129 55.210938 116.457031 41.515625 112.777344 " fill-opacity="1" fill-rule="nonzero"/></g></svg>