<svg xmlns="http://www.w3.org/2000/svg" xmlns:xlink="http://www.w3.org/1999/xlink" width="200" zoomAndPan="magnify" viewBox="0 0 150 149.999998" height="200" preserveAspectRatio="xMidYMid meet" version="1.0"><defs><clipPath id="d3dfac97a7"><path d="M 77 32.1875 L 129 32.1875 L 129 77 L 77 77 Z M 77 32.1875 " clip-rule="nonzero"/></clipPath><clipPath id="90307f032f"><path d="M 23 32.1875 L 73 32.1875 L 73 74 L 23 74 Z M 23 32.1875 " clip-rule="nonzero"/></clipPath><clipPath id="f95a3747bc"><path d="M 64 84 L 136 84 L 136 110.9375 L 64 110.9375 Z M 64 84 " clip-rule="nonzero"/></clipPath></defs><g clip-path="url(#d3dfac97a7)"><path fill="#4be1df" d="M 77.984375 32.1875 L 77.984375 62.210938 C 89.613281 62.972656 100.035156 68.21875 107.511719 76.214844 L 128.871094 54.90625 C 115.886719 41.519531 97.929688 32.964844 77.984375 32.1875 Z M 77.984375 32.1875 " fill-opacity="1" fill-rule="nonzero"/></g><g clip-path="url(#90307f032f)"><path fill="#038b89" d="M 23.78125 52.304688 L 45.136719 73.609375 C 52.34375 67.082031 61.699219 62.886719 72.03125 62.210938 L 72.03125 32.1875 C 53.394531 32.921875 36.503906 40.425781 23.78125 52.304688 Z M 23.78125 52.304688 " fill-opacity="1" fill-rule="nonzero"/></g><path fill="#003d3d" d="M 0 106.707031 L 30.554688 106.707031 C 30.554688 106.621094 30.554688 106.550781 30.554688 106.464844 C 30.554688 95.578125 34.488281 85.617188 41.003906 77.894531 L 19.585938 56.53125 C 7.464844 69.773438 0.0585938 87.382812 0 106.707031 Z M 0 106.707031 " fill-opacity="1" fill-rule="nonzero"/><path fill="#c5faff" d="M 150 106.707031 C 149.941406 88.707031 143.515625 72.214844 132.851562 59.332031 L 111.304688 80.84375 C 116.449219 88.074219 119.460938 96.917969 119.460938 106.464844 C 119.460938 106.550781 119.460938 106.621094 119.460938 106.707031 Z M 150 106.707031 " fill-opacity="1" fill-rule="nonzero"/><g clip-path="url(#f95a3747bc)"><path fill="#000000" d="M 135.445312 84.019531 L 102.640625 91.539062 L 73.730469 98.167969 C 72.9375 97.835938 72.058594 97.648438 71.136719 97.648438 C 67.460938 97.648438 64.480469 100.625 64.480469 104.292969 C 64.480469 107.960938 67.460938 110.933594 71.136719 110.933594 C 73.257812 110.933594 75.144531 109.941406 76.355469 108.417969 L 104.34375 96.84375 Z M 135.445312 84.019531 " fill-opacity="1" fill-rule="nonzero"/></g></svg>