<svg xmlns="http://www.w3.org/2000/svg" xmlns:xlink="http://www.w3.org/1999/xlink" width="200" zoomAndPan="magnify" viewBox="0 0 150 149.999998" height="200" preserveAspectRatio="xMidYMid meet" version="1.0"><defs><clipPath id="2b2c515381"><path d="M 23.863281 0 L 125.863281 0 L 125.863281 150 L 23.863281 150 Z M 23.863281 0 " clip-rule="nonzero"/></clipPath></defs><g clip-path="url(#2b2c515381)"><path fill="#312a5c" d="M 74.875 18.15625 C 88.5625 18.15625 97.378906 32.550781 97.5625 50.40625 L 52.183594 50.40625 C 52.367188 32.554688 61.183594 18.15625 74.875 18.15625 Z M 74.875 0.328125 C 53.546875 0.328125 36.261719 22.957031 36.261719 50.867188 L 36.269531 51.570312 C 29.019531 54.230469 23.851562 61.191406 23.851562 69.359375 L 23.851562 113.8125 C 23.851562 133.601562 46.695312 149.652344 74.875 149.652344 C 103.050781 149.652344 125.898438 133.601562 125.898438 113.8125 L 125.898438 69.359375 C 125.898438 61.191406 120.730469 54.230469 113.476562 51.570312 L 113.484375 50.867188 C 113.484375 22.957031 96.203125 0.328125 74.875 0.328125 Z M 60.394531 92.449219 C 60.394531 84.457031 66.875 77.976562 74.875 77.976562 C 82.871094 77.976562 89.351562 84.457031 89.351562 92.449219 C 89.351562 97.5625 86.695312 102.0625 82.6875 104.632812 L 82.6875 117.953125 L 67.058594 117.953125 L 67.058594 104.632812 C 63.050781 102.0625 60.394531 97.5625 60.394531 92.449219 Z M 60.394531 92.449219 " fill-opacity="1" fill-rule="evenodd"/></g></svg>